<?xml version="1.0" standalone="no"?>
<!DOCTYPE svg PUBLIC "-//W3C//DTD SVG 20010904//EN"
 "http://www.w3.org/TR/2001/REC-SVG-20010904/DTD/svg10.dtd">
<svg version="1.0" xmlns="http://www.w3.org/2000/svg"
 width="512.000000pt" height="512.000000pt" viewBox="0 0 512.000000 512.000000"
 preserveAspectRatio="xMidYMid meet">
<metadata>
Created by potrace 1.14, written by Peter Selinger 2001-2017
</metadata>
<g transform="translate(0.000000,512.000000) scale(0.100000,-0.100000)"
fill="#000000" stroke="none">
<path d="M1959 5101 c-180 -58 -318 -211 -364 -402 -8 -35 -15 -75 -15 -89 l0
-25 -103 3 c-297 10 -557 -149 -693 -423 -61 -123 -77 -207 -71 -367 4 -118 3
-128 -13 -128 -10 0 -64 -23 -120 -51 -182 -91 -319 -253 -382 -453 -13 -39
-22 -104 -25 -181 -5 -102 -2 -133 16 -205 29 -115 76 -210 149 -302 l61 -76
-40 -28 c-61 -42 -124 -118 -162 -194 -39 -77 -39 -109 1 -140 54 -43 90 -21
152 90 83 150 269 223 446 176 81 -21 124 4 124 73 0 67 -65 93 -239 97 l-124
3 -49 48 c-117 114 -178 258 -179 418 0 50 5 114 12 141 29 120 105 242 201
321 56 47 182 113 214 113 13 0 30 -21 54 -62 69 -123 277 -298 353 -298 33 0
77 40 77 70 0 37 -18 58 -88 103 -178 116 -282 298 -284 498 -1 105 14 172 58
264 150 315 540 434 836 255 75 -45 117 -51 148 -20 23 23 27 78 8 102 -17 21
-137 98 -153 98 -29 0 -36 26 -25 96 15 91 48 162 107 225 58 62 124 97 201
107 166 22 318 -62 390 -216 l27 -57 3 -308 c4 -346 11 -310 -75 -363 -192
-116 -451 -104 -645 32 -43 30 -73 44 -95 44 -43 0 -73 -30 -73 -74 0 -28 8
-42 48 -76 60 -53 206 -124 299 -144 150 -33 338 -15 472 45 35 16 65 29 67
29 2 0 4 -648 4 -1440 l0 -1441 25 -24 c26 -27 70 -32 96 -12 37 28 39 48 39
416 l0 361 100 0 100 0 0 -228 c0 -296 -20 -272 228 -272 l182 0 24 -48 c46
-91 124 -142 228 -150 87 -6 145 15 210 76 182 170 59 472 -192 472 -110 0
-214 -67 -254 -165 l-15 -35 -125 0 -126 0 0 175 0 175 69 0 c156 0 234 36
283 129 21 40 28 67 28 111 l0 58 86 3 c79 4 87 6 110 32 31 36 31 71 -1 102
-22 23 -32 25 -110 25 l-85 0 0 150 0 150 84 0 84 0 22 -45 c42 -88 149 -155
244 -155 177 0 312 164 276 335 -21 100 -115 194 -215 215 -116 24 -232 -28
-294 -132 l-34 -58 -83 0 -84 0 0 134 0 134 86 3 c79 4 87 6 110 32 31 36 31
71 -1 102 -22 23 -32 25 -110 25 l-85 0 0 63 c0 77 -23 130 -78 179 -51 46
-93 58 -209 58 l-93 0 0 175 0 175 128 0 128 0 12 -34 c17 -47 84 -114 140
-139 72 -33 171 -30 240 8 100 54 147 133 147 245 0 114 -49 195 -150 248 -41
22 -64 27 -125 27 -65 0 -82 -4 -129 -30 -58 -32 -105 -82 -123 -132 l-12 -33
-183 0 c-182 0 -184 0 -208 -25 l-25 -24 0 -231 0 -230 -100 0 -101 0 3 663 3
662 34 63 c75 137 220 212 373 192 149 -21 267 -133 302 -290 28 -122 28 -123
-64 -171 -44 -23 -89 -53 -100 -67 -36 -45 -23 -100 29 -122 27 -11 35 -10 68
9 151 85 235 111 361 111 338 0 611 -290 588 -625 -13 -192 -136 -392 -297
-483 -64 -36 -86 -72 -70 -115 12 -31 39 -47 79 -47 75 0 275 175 346 303 42
75 39 74 154 20 132 -62 256 -203 299 -341 30 -95 98 -127 147 -69 28 34 15
103 -41 216 -39 80 -62 111 -138 187 -93 94 -165 142 -270 180 -52 19 -60 25
-58 46 11 100 3 250 -16 321 -57 215 -201 393 -396 487 -121 59 -190 75 -333
75 l-122 0 0 41 c0 99 -72 254 -159 342 -98 99 -223 152 -361 152 -149 0 -260
-48 -371 -160 l-76 -76 -39 46 c-74 88 -166 148 -271 175 -77 20 -204 18 -274
-4z m1611 -1187 c104 -62 60 -224 -62 -224 -34 0 -85 35 -104 71 -51 100 68
210 166 153z m-380 -714 c20 -20 20 -33 20 -644 l0 -625 -26 -20 c-24 -19 -40
-21 -180 -21 l-154 0 0 119 0 118 40 7 c22 3 49 15 60 26 19 19 20 34 20 397
0 373 0 377 -22 400 -15 16 -33 23 -60 23 l-38 0 0 120 0 120 160 0 c147 0
162 -2 180 -20z m-380 -645 l0 -265 -90 0 -90 0 0 265 0 265 90 0 90 0 0 -265z
m1067 110 c14 -9 31 -33 40 -52 43 -103 -67 -200 -167 -148 -55 28 -78 115
-44 164 42 59 113 74 171 36z m-304 -1257 c26 -13 57 -68 57 -101 0 -36 -23
-81 -52 -101 -32 -23 -104 -20 -138 4 -39 28 -56 81 -41 130 23 76 100 106
174 68z"/>
<path d="M1794 3346 c-30 -21 -38 -60 -19 -95 11 -22 31 -36 83 -55 130 -50
216 -118 293 -233 51 -75 76 -91 124 -79 14 4 32 20 41 37 19 38 11 65 -45
147 -118 174 -397 336 -477 278z"/>
<path d="M4777 2852 c-9 -10 -28 -51 -41 -92 -30 -87 -102 -197 -162 -247
l-42 -35 -118 -3 c-131 -2 -185 -15 -220 -50 -30 -30 -31 -64 -2 -100 20 -26
24 -27 77 -19 31 4 99 8 151 8 88 1 101 -2 161 -31 80 -39 150 -111 187 -191
24 -50 27 -69 27 -157 0 -88 -3 -107 -27 -158 -33 -70 -113 -156 -174 -188
l-46 -24 -41 47 c-94 106 -160 133 -205 85 -39 -42 -30 -70 57 -162 122 -129
175 -257 175 -420 0 -163 -56 -296 -174 -416 -275 -278 -722 -222 -934 118
-14 23 -35 47 -47 53 -44 24 -109 -17 -109 -68 0 -37 66 -139 140 -216 l58
-61 -14 -54 c-31 -117 -122 -228 -230 -278 -107 -49 -251 -46 -360 7 -76 37
-165 129 -201 207 -24 51 -28 75 -33 192 -5 124 -7 134 -29 152 -32 26 -82 25
-109 -4 -19 -20 -22 -35 -22 -109 0 -156 -33 -255 -116 -347 -55 -61 -162
-117 -249 -131 -210 -34 -439 126 -471 329 -7 42 -5 44 53 104 79 81 133 163
133 202 0 60 -50 96 -104 75 -15 -5 -42 -37 -66 -75 -84 -132 -229 -231 -383
-260 -98 -19 -143 -19 -232 0 -202 42 -378 195 -445 388 -31 87 -38 240 -16
327 33 128 82 209 182 307 43 41 54 58 54 83 0 42 -14 65 -48 79 -42 18 -73 2
-152 -79 l-69 -71 -38 19 c-64 33 -128 97 -163 164 -45 85 -57 98 -97 98 -41
0 -83 -37 -83 -73 0 -79 150 -266 256 -320 l51 -26 -30 -88 c-54 -160 -48
-344 16 -503 40 -99 87 -169 167 -251 206 -209 503 -278 781 -180 72 26 81 27
86 12 63 -175 148 -279 291 -354 226 -119 487 -81 668 98 39 39 77 81 85 94
l15 23 42 -56 c166 -219 471 -289 719 -164 122 61 237 190 284 318 l21 57 83
-29 c281 -97 566 -30 775 181 96 97 148 180 187 296 24 72 27 95 28 225 0 141
-9 194 -51 303 -3 9 17 27 56 51 220 136 321 405 240 641 -37 107 -97 190
-192 266 -42 33 -45 39 -32 50 61 51 158 216 189 321 14 51 15 60 1 86 -8 16
-23 32 -31 36 -31 11 -72 6 -88 -12z"/>
<path d="M2100 2473 c-182 -107 -322 -293 -365 -487 -16 -71 -16 -71 -62 -90
-69 -29 -183 -108 -236 -165 -65 -69 -127 -168 -127 -203 0 -51 65 -92 109
-69 11 6 40 39 63 74 50 73 124 147 184 182 23 14 45 25 47 25 2 0 7 -21 11
-47 17 -126 125 -338 207 -407 39 -33 88 -35 117 -3 36 38 28 72 -33 147 -203
248 -189 577 34 801 42 42 99 88 128 103 29 14 57 35 63 45 29 55 -7 121 -66
121 -16 -1 -49 -13 -74 -27z"/>
</g>
</svg>
